# xmcd
#
# Track frame offsets: 
#        150
#        16315
#        34077
#        49767
#        66607
#        86310
#        105192
#        122907
#        137590
#        154507
#
# Disc length: 2242 seconds
#
# Revision: 9
# Processed by: cddbd v1.5.2PL0 Copyright (c) Steve Scherf et al.
# Submitted via: ExactAudioCopy v1.0b1
#
DISCID=7808c00a
DTITLE=Rick Astley - Whenever You Need Somebody
DYEAR=1987
DGENRE=Pop
TTITLE0=Never Gonna Give You Up
TTITLE1=Whenever You Need Somebody
TTITLE2=Together Forever
TTITLE3=It Would Take A Strong Strong Man
TTITLE4=The Love Has Gone
TTITLE5=Don't Say Goodbye
TTITLE6=Slipping Away
TTITLE7=No More Looking For Love
TTITLE8=You Move Me
TTITLE9=When I Fall In Love
EXTD=YEAR: 1987
EXTT0=
EXTT1=
EXTT2=
EXTT3=
EXTT4=
EXTT5=
EXTT6=
EXTT7=
EXTT8=
EXTT9=
PLAYORDER=
